<?xml version="1.0" encoding="utf-8"?>
<!-- Generator: Adobe Illustrator 16.0.0, SVG Export Plug-In . SVG Version: 6.00 Build 0)  -->
<!DOCTYPE svg PUBLIC "-//W3C//DTD SVG 1.1//EN" "http://www.w3.org/Graphics/SVG/1.1/DTD/svg11.dtd">
<svg version="1.1" id="Layer_1" xmlns="http://www.w3.org/2000/svg" xmlns:xlink="http://www.w3.org/1999/xlink" x="0px" y="0px"
	 width="330px" height="330px" viewBox="0 0 330 330" enable-background="new 0 0 330 330" xml:space="preserve">
<g>
	<path fill="#C5DAFF" d="M244.518,163.21v-34.667c0-2.607-3.033-4.811-6.623-4.811l-6.176-1.927c-3.59,0-6.623,2.204-6.623,4.811
		c0,0,0,5.699,0,7.598c0,5.745,0.399,8.316-1.829,9.184c-2.635,1.024-6.762-2.596-7.741-3.577
		c-2.57-2.569-32.775-27.559-32.775-27.559c-4.112-3.394-11.33-3.395-15.443,0L58.482,202.036c0,0,17.722,0,21.813,0
		c8.813,0,8.096,9.454,8.096,9.454v97.962c0,4.071,3.264,7.384,7.277,7.384c0,0,20.56-10.422,22.183-10.422
		c7.045,0,12.168-5.889,12.168-5.889l43.556-56.162c-0.706-1.22-1.405-2.424-2.095-3.614l6.511-8.974l51.103,81.566
		c0,0-2.45-2.237,4.595-2.237c2.536,0,20.139-4.69,20.139-4.69c4.014,0,7.277-3.312,7.277-7.384v-82.944v-6.972
		c0,0-1.054-7.078,7.255-7.078c6.418,0,23.214,0,23.214,0L244.518,163.21z"/>
	<g>
		<path fill="#6BA0FD" d="M258.899,78.681c-16.794,0-30.41-13.615-30.41-30.41c0,16.794-13.615,30.41-30.41,30.41
			c16.795,0,30.41,13.616,30.41,30.41C228.489,92.297,242.105,78.681,258.899,78.681z"/>
		<path fill="#6BA0FD" d="M287.773,51.343c-11.959,0-21.656-9.695-21.656-21.655c0,11.96-9.694,21.655-21.655,21.655
			c11.961,0,21.655,9.696,21.655,21.656C266.117,61.039,275.814,51.343,287.773,51.343z"/>
		<path fill="#6BA0FD" d="M251.066,24.619c-7.888,0-14.284-6.396-14.284-14.284c0,7.888-6.394,14.284-14.283,14.284
			c7.89,0,14.283,6.396,14.283,14.284C236.782,31.015,243.179,24.619,251.066,24.619z"/>
	</g>
	<path fill="#3379F1" d="M293.379,193.584l-44.839-36.983v-28.057c0-10.4-9.275-18.86-20.675-18.86h-3.205
		c-8.541,0-15.89,4.75-19.036,11.507l-23.96-19.765c-9.344-7.709-23.983-7.709-33.327,0L36.622,193.583
		c-7.692,6.346-7.13,12.058-6.109,14.898s4.221,7.604,14.193,7.604h20.486v82.944c0,11.335,9.174,20.556,20.449,20.556h20.379
		c0,0,9.153,0.745,14.007-2.312c4.777-3.009,9.346-8.522,11.615-11.626c7.749-10.598,23.54-32.325,37.528-51.59
		c11.587,19.97,23.999,41.267,30.193,51.59c1.978,3.297,4.811,8.617,9.588,11.626c4.854,3.057,14.007,2.312,14.007,2.312H243.8
		c11.274,0,20.449-9.221,20.449-20.556v-82.944h21.046c9.972,0,13.172-4.764,14.192-7.604
		C300.507,205.641,301.071,199.93,293.379,193.584z M258.331,202.036c-8.308,0-7.254,7.078-7.254,7.078v6.972v82.944
		c0,4.072-3.266,7.384-7.277,7.384c0,0-20.109,0-22.646,0c-7.046,0-10.143-5.889-10.143-5.889l-34.984-55.913
		c6.141-8.46,11.519-15.87,15.125-20.841c0.744,0.214,3.014,1.561,4.973,0.907c3.579-1.193,7.184-6.622,7.184-6.622
		s1.282,0.148,2.134-0.137c1.077-0.362,4.582-3.316,4.582-3.316c-0.001,0-8.247-5.978-10.648-8.3
		c-0.666-0.644-2.429-2.499-1.041-4.304c1.489-1.937,3.751-0.437,4.581,0.139c3.221,2.233,10.968,9.301,10.968,9.301l23.205-17.157
		c0,0-12.111-17.195-27.662-24.522c-1.196,5.682-5.382,10.467-5.382,10.467s2.392-11.663,0.748-13.308
		c-1.615-1.614-6.729-2.392-6.729-2.392s0.598,6.13-2.543,13.457c-3.14,7.326-9.718,17.195-10.167,20.484s0.149,6.43,0.149,6.43
		s-4.934,5.831-4.336,8.672c0.214,1.021,1.264,2.777,2.725,4.559l-13.524,17.438l-18.792-30.034
		c0.646-1.309,1.325-3.134,1.566-5.358c0.241-2.205-0.156-4.517-0.64-6.348l19.476-14.181c1.171-0.852,1.6-2.61,0.95-3.907
		l-11.62-23.24c-0.648-1.295-2.139-1.662-3.313-0.814l-66.421,47.96c-1.174,0.849-1.337,2.419-0.362,3.49l6.783,7.448
		c0.975,1.071,2.734,1.252,3.907,0.402l51.942-37.623c1.173-0.849,2.864-0.611,3.757,0.529l0.399,0.51
		c0.893,1.14,0.664,2.769-0.511,3.619l-51.436,37.22c-1.173,0.85-1.255,2.341-0.182,3.313l3.692,3.349
		c1.074,0.973,2.911,1.071,4.082,0.219l19.337-14.081c1.05,0.936,2.455,1.854,4.257,2.364c2.787,0.787,5.203,0.451,6.701,0.055
		c2.422,4.196,10.322,17.882,19.605,33.902l-43.555,56.162c0,0-5.123,5.889-12.169,5.889c-1.623,0-22.182,0-22.182,0
		c-4.013,0-7.277-3.312-7.277-7.384v-87.54c0,0,0.717-9.454-8.095-9.454c-4.092,0-21.814,0-21.814,0l108.824-89.773
		c4.114-3.394,11.331-3.394,15.444,0c0,0,33.174,26.917,35.744,29.486c0.98,0.98,5.106,4.601,7.741,3.577
		c2.229-0.868,1.829-3.439,1.829-9.184c0-1.899,0-7.598,0-7.598c0-2.607,3.033-4.811,6.623-4.811h3.205
		c3.591,0,6.624,2.204,6.624,4.811v34.667l47.057,38.825C281.546,202.036,264.749,202.036,258.331,202.036z"/>
</g>
</svg>
